HIERARCHY
ROOT Hip
{
	OFFSET	0.0000	0.0000	0.0000
	CHANNELS 6 Xposition Yposition Zposition Xrotation Yrotation Zrotation
	JOINT LowerSpine
	{
		OFFSET	0.0000	10.0859	-5.4579
		CHANNELS 3 Xrotation Yrotation Zrotation
		JOINT MiddleSpine
		{
			OFFSET	0.0000	9.2041	0.4808
			CHANNELS 3 Xrotation Yrotation Zrotation
			JOINT Chest
			{
				OFFSET	0.0000	11.3891	-2.5351
				CHANNELS 3 Xrotation Yrotation Zrotation
				JOINT Neck
				{
					OFFSET	0.0000	25.6648	-0.5337
					CHANNELS 3 Xrotation Yrotation Zrotation
					JOINT Head
					{
						OFFSET	0.0000	14.4932	3.9421
						CHANNELS 3 Xrotation Yrotation Zrotation
						End Site
						{
							OFFSET	0.0001	20.2508	0.6045
						}
					}
				}
				JOINT LClavicle
				{
					OFFSET	2.5911	24.7678	8.4856
					CHANNELS 3 Xrotation Yrotation Zrotation
					JOINT LShoulder
					{
						OFFSET	15.1374	3.5526	-5.7484
						CHANNELS 3 Xrotation Yrotation Zrotation
						JOINT LForearm
						{
							OFFSET	32.1549	-0.1142	-0.2786
							CHANNELS 3 Xrotation Yrotation Zrotation
							JOINT LHand
							{
								OFFSET	26.8240	0.0778	-0.1606
								CHANNELS 3 Xrotation Yrotation Zrotation
								JOINT LFinger1
								{
									OFFSET	10.3962	0.9092	2.8875
									CHANNELS 3 Xrotation Yrotation Zrotation
									JOINT LFinger11
									{
										OFFSET	3.8887	-0.9483	0.6852
										CHANNELS 3 Xrotation Yrotation Zrotation
										JOINT LFinger12
										{
											OFFSET	2.6547	-0.6476	0.4680
											CHANNELS 3 Xrotation Yrotation Zrotation
											End Site
											{
												OFFSET	1.8891	-0.5639	0.3064
											}
										}
									}
								}
								JOINT LFinger2
								{
									OFFSET	10.5514	1.0500	0.2514
									CHANNELS 3 Xrotation Yrotation Zrotation
									JOINT LFinger21
									{
										OFFSET	4.8082	0.0134	-0.0284
										CHANNELS 3 Xrotation Yrotation Zrotation
										JOINT LFinger22
										{
											OFFSET	2.6650	0.0081	-0.0162
											CHANNELS 3 Xrotation Yrotation Zrotation
											End Site
											{
												OFFSET	2.3938	-0.1690	0.0032
											}
										}
									}
								}
								JOINT LFinger3
								{
									OFFSET	9.9996	0.7006	-2.3657
									CHANNELS 3 Xrotation Yrotation Zrotation
									JOINT LFinger31
									{
										OFFSET	4.3629	-0.2209	-0.2731
										CHANNELS 3 Xrotation Yrotation Zrotation
										JOINT LFinger32
										{
											OFFSET	2.4861	-0.1251	-0.1562
											CHANNELS 3 Xrotation Yrotation Zrotation
											End Site
											{
												OFFSET	2.1982	-0.2703	-0.1039
											}
										}
									}
								}
								JOINT LFinger4
								{
									OFFSET	9.2792	-0.7052	-4.0856
									CHANNELS 3 Xrotation Yrotation Zrotation
									JOINT LFinger41
									{
										OFFSET	2.6836	-0.5596	-0.7408
										CHANNELS 3 Xrotation Yrotation Zrotation
										JOINT LFinger42
										{
											OFFSET	1.9679	-0.4099	-0.5436
											CHANNELS 3 Xrotation Yrotation Zrotation
											End Site
											{
												OFFSET	1.7467	-0.4799	-0.4007
											}
										}
									}
								}
								JOINT LFinger0
								{
									OFFSET	2.1505	-1.6278	1.6303
									CHANNELS 3 Xrotation Yrotation Zrotation
									JOINT LFinger01
									{
										OFFSET	4.0040	-1.3151	3.0189
										CHANNELS 3 Xrotation Yrotation Zrotation
										JOINT LFinger02
										{
											OFFSET	2.6366	-0.9434	1.8996
											CHANNELS 3 Xrotation Yrotation Zrotation
											End Site
											{
												OFFSET	1.9389	-0.6674	1.3277
											}
										}
									}
								}
							}
						}
					}
				}
				JOINT RClavicle
				{
					OFFSET	-2.5911	24.7678	8.4856
					CHANNELS 3 Xrotation Yrotation Zrotation
					JOINT RShoulder
					{
						OFFSET	-15.1401	3.5532	-5.7494
						CHANNELS 3 Xrotation Yrotation Zrotation
						JOINT RForearm
						{
							OFFSET	-32.1549	-0.1142	-0.2786
							CHANNELS 3 Xrotation Yrotation Zrotation
							JOINT RHand
							{
								OFFSET	-26.8240	0.0779	-0.1606
								CHANNELS 3 Xrotation Yrotation Zrotation
								JOINT RFinger1
								{
									OFFSET	-10.3962	0.9092	2.8875
									CHANNELS 3 Xrotation Yrotation Zrotation
									JOINT RFinger11
									{
										OFFSET	-3.8887	-0.9483	0.6852
										CHANNELS 3 Xrotation Yrotation Zrotation
										JOINT RFinger12
										{
											OFFSET	-2.6547	-0.6476	0.4680
											CHANNELS 3 Xrotation Yrotation Zrotation
											End Site
											{
												OFFSET	-1.8891	-0.5639	0.3064
											}
										}
									}
								}
								JOINT RFinger2
								{
									OFFSET	-10.5514	1.0500	0.2514
									CHANNELS 3 Xrotation Yrotation Zrotation
									JOINT RFinger21
									{
										OFFSET	-4.8082	0.0134	-0.0284
										CHANNELS 3 Xrotation Yrotation Zrotation
										JOINT RFinger22
										{
											OFFSET	-2.6650	0.0081	-0.0162
											CHANNELS 3 Xrotation Yrotation Zrotation
											End Site
											{
												OFFSET	-2.3938	-0.1690	0.0032
											}
										}
									}
								}
								JOINT RFinger3
								{
									OFFSET	-9.9996	0.7006	-2.3657
									CHANNELS 3 Xrotation Yrotation Zrotation
									JOINT RFinger31
									{
										OFFSET	-4.3629	-0.2209	-0.2731
										CHANNELS 3 Xrotation Yrotation Zrotation
										JOINT RFinger32
										{
											OFFSET	-2.4861	-0.1251	-0.1562
											CHANNELS 3 Xrotation Yrotation Zrotation
											End Site
											{
												OFFSET	-2.1982	-0.2703	-0.1039
											}
										}
									}
								}
								JOINT RFinger4
								{
									OFFSET	-9.2792	-0.7052	-4.0856
									CHANNELS 3 Xrotation Yrotation Zrotation
									JOINT RFinger41
									{
										OFFSET	-2.6836	-0.5596	-0.7408
										CHANNELS 3 Xrotation Yrotation Zrotation
										JOINT RFinger42
										{
											OFFSET	-1.9679	-0.4099	-0.5436
											CHANNELS 3 Xrotation Yrotation Zrotation
											End Site
											{
												OFFSET	-1.7467	-0.4799	-0.4007
											}
										}
									}
								}
								JOINT RFinger0
								{
									OFFSET	-2.1505	-1.6278	1.6303
									CHANNELS 3 Xrotation Yrotation Zrotation
									JOINT RFinger01
									{
										OFFSET	-4.0040	-1.3151	3.0189
										CHANNELS 3 Xrotation Yrotation Zrotation
										JOINT RFinger02
										{
											OFFSET	-2.6366	-0.9434	1.8996
											CHANNELS 3 Xrotation Yrotation Zrotation
											End Site
											{
												OFFSET	-1.9389	-0.6674	1.3277
											}
										}
									}
								}
							}
						}
					}
				}
			}
		}
	}
	JOINT RThigh
	{
		OFFSET	-10.7894	4.5591	-0.8894
		CHANNELS 3 Xrotation Yrotation Zrotation
		JOINT RShin
		{
			OFFSET	-0.8633	-46.9290	0.0000
			CHANNELS 3 Xrotation Yrotation Zrotation
			JOINT RFoot
			{
				OFFSET	0.0000	-46.0814	0.0000
				CHANNELS 3 Xrotation Yrotation Zrotation
				JOINT RToe
				{
					OFFSET	0.0000	-5.0648	10.5911
					CHANNELS 3 Xrotation Yrotation Zrotation
					End Site
					{
						OFFSET	0.0000	0.0000	7.1051
					}
				}
			}
		}
	}
	JOINT LThigh
	{
		OFFSET	10.7893	4.5594	-0.8894
		CHANNELS 3 Xrotation Yrotation Zrotation
		JOINT LShin
		{
			OFFSET	0.8634	-46.9293	0.0000
			CHANNELS 3 Xrotation Yrotation Zrotation
			JOINT LFoot
			{
				OFFSET	0.0000	-46.0814	0.0000
				CHANNELS 3 Xrotation Yrotation Zrotation
				JOINT LToe
				{
					OFFSET	0.0000	-5.0648	10.5911
					CHANNELS 3 Xrotation Yrotation Zrotation
					End Site
					{
						OFFSET	0.0000	0.0000	7.1051
					}
				}
			}
		}
	}
}
MOTION
Frames:	6
Frame Time: 0.0333333000
	0.0000	96.1465	2.8200	0.000000	0.000000	0.000000	0.000000	0.000000	0.000000	0.000000	0.000000	0.000000	0.000000	0.000000	0.000000	0.000000	0.000000	0.000000	0.000000	0.000000	0.000000	0.000000	0.000000	0.000000	0.000000	0.000000	0.000000	0.000000	0.000000	0.000000	0.000000	0.000000	0.000000	0.000000	0.000000	0.000000	0.000000	0.000000	0.000000	0.000000	0.000000	0.000000	0.000000	0.000000	0.000000	0.000000	0.000000	0.000000	0.000000	0.000000	0.000000	0.000000	0.000000	0.000000	0.000000	0.000000	0.000000	0.000000	0.000000	0.000000	0.000000	0.000000	0.000000	0.000000	0.000000	0.000000	0.000000	0.000000	0.000000	0.000000	0.000000	0.000000	0.000000	0.000000	0.000000	0.000000	0.000000	0.000000	0.000000	0.000000	0.000000	0.000000	0.000000	0.000000	0.000000	0.000000	0.000000	0.000000	0.000000	0.000000	0.000000	0.000000	0.000000	0.000000	0.000000	0.000000	0.000000	0.000000	0.000000	0.000000	0.000000	0.000000	0.000000	0.000000	0.000000	0.000000	0.000000	0.000000	0.000000	0.000000	0.000000	0.000000	0.000000	0.000000	0.000000	0.000000	0.000000	0.000000	0.000000	0.000000	0.000000	0.000000	0.000000	0.000000	0.000000	0.000000	0.000000	0.000000	0.000000	0.000000	0.000000	0.000000	0.000000	0.000000	0.000000	0.000000	0.000000	0.000000	0.000000	0.000000	0.000000	0.000000	0.000000	0.000000	0.000000	0.000000	0.000000	0.000000	0.000000	0.000000	0.000000	0.000000	0.000000	0.000000	0.000000	0.000000	0.000000	0.000000	0.000000
	-0.6174	96.2381	2.9648	-7.724370	-2.164019	-0.509900	0.000000	0.000000	0.000000	3.662524	-0.467296	0.001382	12.212270	-1.550340	0.117764	0.000000	0.000000	0.000000	0.000000	0.000000	0.000000	0.000000	0.000000	-14.331090	10.968810	-16.568410	-55.791430	-4.453884	-97.509330	1.206949	0.000000	0.000000	0.000000	0.000000	0.000000	0.000000	0.000000	0.000000	0.000000	0.000000	0.000000	0.000000	0.000000	0.000000	0.000000	0.000000	0.000000	0.000000	0.000000	0.000000	0.000000	0.000000	0.000000	0.000000	0.000000	0.000000	0.000000	0.000000	0.000000	0.000000	0.000000	0.000000	0.000000	0.000000	0.000000	0.000000	0.000000	0.000000	0.000000	0.000000	0.000000	0.000000	0.000000	0.000000	0.000000	0.000000	0.000000	0.000000	0.000000	0.000000	14.111600	5.494782	25.875010	54.822160	-6.982965	83.955500	1.565604	0.000000	0.000000	0.000000	0.000000	0.000000	0.000000	0.000000	0.000000	0.000000	0.000000	0.000000	0.000000	0.000000	0.000000	0.000000	0.000000	0.000000	0.000000	0.000000	0.000000	0.000000	0.000000	0.000000	0.000000	0.000000	0.000000	0.000000	0.000000	0.000000	0.000000	0.000000	0.000000	0.000000	0.000000	0.000000	0.000000	0.000000	0.000000	0.000000	0.000000	0.000000	0.000000	0.000000	0.000000	0.000000	0.000000	0.000000	0.000000	-0.085075	-2.300190	-1.662896	13.500970	-2.487257	0.559685	-3.769838	0.570091	0.278400	0.000000	0.000000	0.000000	2.838995	0.103043	-0.596847	6.755426	0.201209	-0.183966	-1.805025	2.139049	1.054062	0.000000	0.000000	0.000000
	-1.1023	96.4763	3.2096	-8.453772	-3.567879	-1.546315	0.000000	0.000000	0.000000	3.951236	0.043251	0.222145	13.171120	0.202497	0.723890	0.000000	0.000000	0.000000	0.000000	0.000000	0.000000	0.000000	0.000000	-14.826180	10.195050	-18.294770	-57.503000	-7.726650	-84.481910	-1.719109	0.000000	0.000000	0.000000	0.000000	0.000000	0.000000	0.000000	0.000000	0.000000	0.000000	0.000000	0.000000	0.000000	0.000000	0.000000	0.000000	0.000000	0.000000	0.000000	0.000000	0.000000	0.000000	0.000000	0.000000	0.000000	0.000000	0.000000	0.000000	0.000000	0.000000	0.000000	0.000000	0.000000	0.000000	0.000000	0.000000	0.000000	0.000000	0.000000	0.000000	0.000000	0.000000	0.000000	0.000000	0.000000	0.000000	0.000000	0.000000	0.000000	0.000000	14.101760	6.255374	23.521580	54.538660	-6.517250	74.068060	0.627876	0.000000	0.000000	0.000000	0.000000	0.000000	0.000000	0.000000	0.000000	0.000000	0.000000	0.000000	0.000000	0.000000	0.000000	0.000000	0.000000	0.000000	0.000000	0.000000	0.000000	0.000000	0.000000	0.000000	0.000000	0.000000	0.000000	0.000000	0.000000	0.000000	0.000000	0.000000	0.000000	0.000000	0.000000	0.000000	0.000000	0.000000	0.000000	0.000000	0.000000	0.000000	0.000000	0.000000	0.000000	0.000000	0.000000	0.000000	0.000000	0.971330	-3.423971	-0.723386	12.769340	-3.549594	0.768438	-2.299600	-0.355578	-0.186351	0.000000	0.000000	0.000000	4.515377	0.142788	0.565383	5.971712	0.136741	0.128171	-1.931668	0.782740	0.386745	0.000000	0.000000	0.000000
	-1.4795	96.7351	3.2090	-8.620214	-4.746752	-2.314986	0.000000	0.000000	0.000000	4.072917	0.402993	0.375791	13.567430	1.439240	1.135100	0.000000	0.000000	0.000000	0.000000	0.000000	0.000000	0.000000	0.000000	-15.165070	9.539058	-19.594930	-58.695000	-6.686884	-72.983280	-0.436627	0.000000	0.000000	0.000000	0.000000	0.000000	0.000000	0.000000	0.000000	0.000000	0.000000	0.000000	0.000000	0.000000	0.000000	0.000000	0.000000	0.000000	0.000000	0.000000	0.000000	0.000000	0.000000	0.000000	0.000000	0.000000	0.000000	0.000000	0.000000	0.000000	0.000000	0.000000	0.000000	0.000000	0.000000	0.000000	0.000000	0.000000	0.000000	0.000000	0.000000	0.000000	0.000000	0.000000	0.000000	0.000000	0.000000	0.000000	0.000000	0.000000	0.000000	14.106670	5.910759	22.462880	54.638560	-7.099966	63.426030	0.392243	0.000000	0.000000	0.000000	0.000000	0.000000	0.000000	0.000000	0.000000	0.000000	0.000000	0.000000	0.000000	0.000000	0.000000	0.000000	0.000000	0.000000	0.000000	0.000000	0.000000	0.000000	0.000000	0.000000	0.000000	0.000000	0.000000	0.000000	0.000000	0.000000	0.000000	0.000000	0.000000	0.000000	0.000000	0.000000	0.000000	0.000000	0.000000	0.000000	0.000000	0.000000	0.000000	0.000000	0.000000	0.000000	0.000000	0.000000	0.000000	1.115361	-4.216865	0.035501	12.645730	-4.323136	0.942538	-1.152260	-0.600931	-0.292478	0.000000	0.000000	0.000000	5.342760	0.180450	1.463105	5.138947	0.059347	0.175059	-1.595245	0.025789	0.013886	0.000000	0.000000	0.000000
	-1.7250	96.9773	3.0682	-8.381224	-5.275578	-2.814006	0.000000	0.000000	0.000000	4.056610	0.606557	0.496758	13.505410	2.147027	1.480783	0.000000	0.000000	0.000000	0.000000	0.000000	0.000000	0.000000	0.000000	-15.360460	8.773414	-20.806890	-59.382690	-6.642821	-62.964550	-0.205419	0.000000	0.000000	0.000000	0.000000	0.000000	0.000000	0.000000	0.000000	0.000000	0.000000	0.000000	0.000000	0.000000	0.000000	0.000000	0.000000	0.000000	0.000000	0.000000	0.000000	0.000000	0.000000	0.000000	0.000000	0.000000	0.000000	0.000000	0.000000	0.000000	0.000000	0.000000	0.000000	0.000000	0.000000	0.000000	0.000000	0.000000	0.000000	0.000000	0.000000	0.000000	0.000000	0.000000	0.000000	0.000000	0.000000	0.000000	0.000000	0.000000	0.000000	14.081060	4.646090	22.519690	55.083920	-8.076197	52.234270	0.247487	0.000000	0.000000	0.000000	0.000000	0.000000	0.000000	0.000000	0.000000	0.000000	0.000000	0.000000	0.000000	0.000000	0.000000	0.000000	0.000000	0.000000	0.000000	0.000000	0.000000	0.000000	0.000000	0.000000	0.000000	0.000000	0.000000	0.000000	0.000000	0.000000	0.000000	0.000000	0.000000	0.000000	0.000000	0.000000	0.000000	0.000000	0.000000	0.000000	0.000000	0.000000	0.000000	0.000000	0.000000	0.000000	0.000000	0.000000	0.000000	0.776197	-4.466417	0.720962	12.783620	-4.579862	1.011384	-0.501310	-0.338041	-0.162482	0.000000	0.000000	0.000000	5.445519	0.206020	2.185127	4.570777	0.003509	-0.123089	-0.990175	-0.180432	-0.088162	0.000000	0.000000	0.000000
	-1.9023	97.1072	2.9764	-8.126328	-5.230742	-3.124824	0.000000	0.000000	0.000000	4.014992	0.686084	0.592148	13.360720	2.435363	1.777536	0.000000	0.000000	0.000000	0.000000	0.000000	0.000000	0.000000	0.000000	-15.444070	7.718447	-22.283350	-59.745550	-6.700828	-53.371980	-0.088786	0.000000	0.000000	0.000000	0.000000	0.000000	0.000000	0.000000	0.000000	0.000000	0.000000	0.000000	0.000000	0.000000	0.000000	0.000000	0.000000	0.000000	0.000000	0.000000	0.000000	0.000000	0.000000	0.000000	0.000000	0.000000	0.000000	0.000000	0.000000	0.000000	0.000000	0.000000	0.000000	0.000000	0.000000	0.000000	0.000000	0.000000	0.000000	0.000000	0.000000	0.000000	0.000000	0.000000	0.000000	0.000000	0.000000	0.000000	0.000000	0.000000	0.000000	14.051780	3.359465	23.835300	55.503110	-8.527698	40.778350	-0.325024	0.000000	0.000000	0.000000	0.000000	0.000000	0.000000	0.000000	0.000000	0.000000	0.000000	0.000000	0.000000	0.000000	0.000000	0.000000	0.000000	0.000000	0.000000	0.000000	0.000000	0.000000	0.000000	0.000000	0.000000	0.000000	0.000000	0.000000	0.000000	0.000000	0.000000	0.000000	0.000000	0.000000	0.000000	0.000000	0.000000	0.000000	0.000000	0.000000	0.000000	0.000000	0.000000	0.000000	0.000000	0.000000	0.000000	0.000000	0.000000	0.626929	-4.465096	1.257210	12.651430	-4.584571	1.000512	-0.140194	-0.127303	-0.061120	0.000000	0.000000	0.000000	5.494390	0.233477	2.737013	4.114564	-0.014543	-0.400978	-0.489302	-0.160130	-0.077243	0.000000	0.000000	0.000000
